<svg width="48" height="48" viewBox="0 0 48 48" fill="none" xmlns="http://www.w3.org/2000/svg">
<path d="M33.9996 3.99964C36.6496 4.00756 39.1887 5.06374 41.0625 6.93753C42.9363 8.81131 43.9924 11.3504 44.0004 14.0004V33.9996C43.9924 36.6496 42.9363 39.1887 41.0625 41.0625C39.1887 42.9363 36.6496 43.9924 33.9996 44.0004H14.0004C11.3504 43.9924 8.81131 42.9363 6.93753 41.0625C5.06374 39.1887 4.00756 36.6496 3.99964 33.9996V14.0004C4.00756 11.3504 5.06374 8.81131 6.93753 6.93753C8.81131 5.06374 11.3504 4.00756 14.0004 3.99964H33.9996M33.9996 0H14.0004C6.3 0 0 6.3 0 14.0004V33.9996C0 41.7 6.3 48 14.0004 48H33.9996C41.7 48 48 41.7 48 33.9996V14.0004C48 6.3 41.7 0 33.9996 0V0Z" fill="#2B2A29"/>
<path d="M36.9996 14.0006C36.4063 14.0006 35.8263 13.8246 35.3329 13.495C34.8396 13.1653 34.4551 12.6968 34.228 12.1486C34.0009 11.6004 33.9415 10.9972 34.0573 10.4153C34.173 9.83335 34.4588 9.2988 34.8783 8.87925C35.2979 8.45969 35.8324 8.17397 36.4144 8.05821C36.9963 7.94245 37.5995 8.00186 38.1477 8.22893C38.6959 8.45599 39.1644 8.84051 39.4941 9.33386C39.8237 9.8272 39.9996 10.4072 39.9996 11.0006C40.0005 11.3948 39.9235 11.7853 39.773 12.1496C39.6225 12.514 39.4016 12.845 39.1229 13.1238C38.8441 13.4025 38.5131 13.6235 38.1487 13.7739C37.7843 13.9244 37.3939 14.0014 36.9996 14.0006V14.0006ZM24 15.9999C25.5823 15.9999 27.1291 16.4691 28.4448 17.3482C29.7604 18.2272 30.7858 19.4767 31.3914 20.9386C31.9969 22.4005 32.1553 24.0091 31.8466 25.561C31.5379 27.1129 30.776 28.5384 29.6571 29.6573C28.5382 30.7762 27.1127 31.5381 25.5608 31.8468C24.0089 32.1555 22.4003 31.9971 20.9384 31.3916C19.4765 30.786 18.227 29.7606 17.348 28.445C16.4689 27.1293 15.9996 25.5825 15.9996 24.0002C16.0019 21.8791 16.8455 19.8455 18.3454 18.3456C19.8453 16.8457 21.8789 16.0021 24 15.9999M24 12.0002C21.6266 12.0002 19.3066 12.704 17.3332 14.0226C15.3598 15.3411 13.8217 17.2153 12.9135 19.408C12.0052 21.6007 11.7676 24.0135 12.2306 26.3413C12.6936 28.6691 13.8365 30.8073 15.5147 32.4855C17.193 34.1637 19.3311 35.3066 21.6589 35.7696C23.9867 36.2327 26.3995 35.995 28.5922 35.0868C30.7849 34.1785 32.6591 32.6404 33.9776 30.6671C35.2962 28.6937 36 26.3736 36 24.0002C36 20.8176 34.7357 17.7654 32.4853 15.5149C30.2348 13.2645 27.1826 12.0002 24 12.0002V12.0002Z" fill="#2B2A29"/>
</svg>
