<svg width="24" height="25" viewBox="0 0 24 25" fill="none" xmlns="http://www.w3.org/2000/svg">
<path fill-rule="evenodd" clip-rule="evenodd" d="M20.5034 3.98755C19.3939 2.87759 18.0759 1.99802 16.6252 1.39949C15.1745 0.80096 13.6197 0.495282 12.0503 0.500055C5.46428 0.500055 0.102857 5.83469 0.100178 12.3929C0.0972648 14.4812 0.647729 16.5329 1.69553 18.3393L0 24.5L6.33481 22.8463C8.08832 23.7962 10.0512 24.2934 12.0455 24.2927H12.0503C18.6359 24.2927 23.9967 18.9575 24 12.3998C24.004 10.8359 23.6969 9.28671 23.0966 7.8425C22.4963 6.3983 21.6148 5.0879 20.5034 3.98755ZM12.0503 22.2854H12.0461C10.2682 22.2859 8.52272 21.8101 6.99106 20.9075L6.62838 20.6932L2.86928 21.6747L3.87267 18.027L3.63642 17.652C2.64235 16.0782 2.11567 14.2544 2.11768 12.3929C2.11768 6.94308 6.57535 2.50898 12.0541 2.50898C14.6823 2.50429 17.2047 3.54373 19.0666 5.39868C20.9285 7.25363 21.9774 9.77218 21.9825 12.4004C21.9803 17.8507 17.5248 22.2854 12.0503 22.2854ZM17.498 14.8823C17.1996 14.7334 15.7302 14.0145 15.458 13.9154C15.1859 13.8163 14.985 13.7665 14.7862 14.0643C14.5875 14.3622 14.0148 15.0286 13.8407 15.2295C13.6666 15.4304 13.4925 15.4523 13.1941 15.3034C12.8957 15.1545 11.933 14.8411 10.7925 13.8286C9.90481 13.0406 9.30588 12.0677 9.13177 11.7704C8.95766 11.4731 9.11302 11.3118 9.26248 11.164C9.39695 11.0306 9.56088 10.8168 9.71034 10.6432C9.85981 10.4697 9.90963 10.3454 10.0087 10.1472C10.1078 9.94896 10.0586 9.77539 9.98409 9.627C9.90963 9.47861 9.31231 8.01557 9.06374 7.4204C8.82106 6.84075 8.57516 6.91951 8.39195 6.9104C8.21784 6.90183 8.01695 6.89968 7.81927 6.89968C7.66815 6.90362 7.51947 6.93866 7.3825 7.00263C7.24553 7.0666 7.12322 7.15811 7.0232 7.27147C6.74945 7.56932 5.97803 8.28932 5.97803 9.75075C5.97803 11.2122 7.04945 12.6265 7.19731 12.8247C7.34517 13.0229 9.30266 16.0245 12.2978 17.3118C12.854 17.55 13.4223 17.7588 14.0003 17.9375C14.7155 18.1636 15.3664 18.132 15.8807 18.0554C16.4544 17.9702 17.6485 17.3364 17.8966 16.6422C18.1446 15.9479 18.1451 15.3532 18.0707 15.2295C17.9962 15.1057 17.7969 15.0307 17.498 14.8823Z" fill="white"/>
</svg>
