<svg width="57" height="57" viewBox="0 0 57 57" fill="none" xmlns="http://www.w3.org/2000/svg">
<path d="M54.9854 44.7323C54.1425 43.6931 52.694 42.8336 50.2897 43.6157L49.9402 42.9637C49.7403 42.5911 49.2763 42.4509 48.9036 42.6508L45.3903 44.5347L45.3168 44.3975C46.2166 42.7264 46.2907 40.6496 45.3286 38.8555L26.3701 3.49895C25.1152 1.15855 22.1873 0.269764 19.8435 1.51675C19.418 1.74294 19.1068 2.12061 18.967 2.5802C18.8286 3.03564 18.8761 3.51744 19.101 3.93678L19.3167 4.33895L18.8248 4.60265C17.9214 5.0873 17.5805 6.21648 18.0649 7.12003L27.7784 25.2349C28.0131 25.6727 28.4041 25.9928 28.8796 26.1363C29.0573 26.1899 29.2388 26.2165 29.4193 26.2165C29.7219 26.2165 30.0216 26.1418 30.2957 25.9949L30.7875 25.7312L36.0096 35.4701C36.0456 35.5373 36.0773 35.6058 36.106 35.6752C35.9402 35.7405 35.7769 35.8148 35.6174 35.9003C35.4858 35.9709 35.3587 36.0473 35.2361 36.1292L25.3 30.4197L25.5781 29.9357C25.8256 29.5049 25.8905 29.0038 25.761 28.5243C25.6314 28.0448 25.3229 27.6445 24.8923 27.3971L7.07031 17.1562C6.6397 16.9087 6.13855 16.8436 5.65894 16.9733C5.17944 17.1029 4.77913 17.4113 4.53172 17.842L4.25358 18.326L3.77255 18.0497C3.39783 17.8343 2.95617 17.7797 2.5283 17.8961C2.0675 18.0213 1.6626 18.3394 1.41749 18.7688C0.10072 21.0751 0.750408 23.9403 2.86583 25.1559L34.4415 43.2999L35.0218 44.382C35.7598 45.7586 36.9897 46.7653 38.4851 47.2168C38.8682 47.3324 39.2572 47.4071 39.6467 47.4432L41.4065 50.7251C41.6412 51.1628 42.0322 51.483 42.5077 51.6265C42.6854 51.6801 42.8669 51.7066 43.0475 51.7066C43.35 51.7066 43.6497 51.6319 43.9238 51.485L46.3188 50.2009C46.9548 49.8598 47.3104 49.1993 47.2972 48.5229L50.9905 46.5426C51.1695 46.4467 51.303 46.2836 51.3617 46.0891C51.4205 45.8948 51.3996 45.685 51.3035 45.5061L51.028 44.9922C52.2284 44.6737 53.1556 44.9068 53.7961 45.6968C54.7228 46.8395 54.8406 48.3486 54.1196 49.8372C53.0295 52.0877 49.7975 54.4665 43.9849 54.3931C41.1035 54.3566 38.4022 53.8037 35.7898 53.2691C30.4861 52.1832 25.4767 51.1582 20.0512 54.6373C19.6951 54.8656 19.5917 55.3392 19.8199 55.6951C19.9662 55.9232 20.213 56.0476 20.4651 56.0476C20.6066 56.0476 20.7498 56.0085 20.8776 55.9264C25.7793 52.7832 30.276 53.7035 35.4827 54.7694C38.1651 55.3184 40.9388 55.8861 43.9655 55.9244C46.8621 55.9632 49.3881 55.4408 51.4714 54.378C53.3398 53.4248 54.7321 52.0855 55.4977 50.5048C56.4737 48.4896 56.2822 46.3316 54.9854 44.7323ZM29.5718 24.6455C29.4674 24.7014 29.3705 24.6849 29.322 24.6706C29.2734 24.6558 29.1835 24.6157 29.1278 24.5115L19.4143 6.39651C19.3288 6.23705 19.3891 6.03776 19.5485 5.95223L20.0403 5.68853L30.0638 24.3818L29.5718 24.6455ZM35.114 41.3134C34.7351 40.6068 34.654 39.795 34.8858 39.0276C35.1175 38.26 35.6343 37.6287 36.3408 37.2498C36.7833 37.0125 37.267 36.892 37.7554 36.892C38.0467 36.892 38.34 36.935 38.6268 37.0216C39.3943 37.2533 40.0257 37.7701 40.4045 38.4766C40.7834 39.1832 40.8645 39.9951 40.6327 40.7625C40.401 41.5301 39.8842 42.1614 39.1777 42.5402C38.4711 42.919 37.6595 43.0002 36.8918 42.7684C36.1243 42.5368 35.4928 42.02 35.114 41.3134ZM5.85953 18.6047C5.91838 18.5022 6.00938 18.4648 6.05827 18.4516C6.10716 18.4383 6.20472 18.4249 6.30731 18.4839L24.1293 28.7249C24.2318 28.7837 24.2692 28.8747 24.2824 28.9236C24.2957 28.9726 24.3091 29.0702 24.2502 29.1727L23.972 29.6567L5.58106 19.0889L5.85953 18.6047ZM2.74716 19.528C2.79134 19.4504 2.8596 19.3929 2.9297 19.3737C2.94436 19.3698 2.9577 19.3678 2.96985 19.3678C2.98527 19.3678 2.9985 19.3709 3.00955 19.3774L34.0871 37.2351C33.7949 37.6394 33.5683 38.0934 33.4198 38.5849C33.1891 39.3492 33.165 40.1424 33.3385 40.9001L3.62861 23.8282C2.24327 23.0321 1.84788 21.1031 2.74716 19.528ZM36.8116 44.324C37.1245 44.3912 37.4445 44.4271 37.7668 44.4271C38.489 44.4271 39.2215 44.2543 39.9012 43.8897C40.9683 43.3176 41.7486 42.3642 42.0986 41.2051C42.4485 40.046 42.3261 38.82 41.754 37.753C41.1819 36.686 40.2284 35.9055 39.0694 35.5556C38.5931 35.4118 38.1056 35.3492 37.6225 35.3633C37.5532 35.1526 37.4661 34.9462 37.359 34.7466L20.4505 3.21326C20.4108 3.139 20.4185 3.07009 20.4322 3.02536C20.4439 2.98653 20.4766 2.91423 20.5625 2.86862C21.0541 2.60689 21.5832 2.48308 22.1054 2.48308C23.2837 2.48308 24.4266 3.11483 25.0205 4.22247L43.979 39.579C44.5237 40.5951 44.6403 41.7625 44.3071 42.8663C43.9739 43.97 43.2308 44.8779 42.2148 45.4227C41.1988 45.9676 40.0315 46.0842 38.9274 45.7508C38.082 45.4956 37.3521 44.999 36.8116 44.324ZM45.5951 48.8514L43.2 50.1356C43.0956 50.1915 42.9987 50.175 42.9502 50.1606C42.9017 50.1459 42.8118 50.1057 42.756 50.0016L41.3347 47.3509C41.8875 47.2383 42.4273 47.0463 42.9385 46.7721C43.4552 46.4949 43.9126 46.1501 44.3074 45.7553L45.7293 48.4072C45.8148 48.5667 45.7546 48.7659 45.5951 48.8514ZM46.7535 47.077L46.1139 45.8842L48.9525 44.362L49.5923 45.5548L46.7535 47.077Z" fill="#2B2A29"/>
</svg>
