<svg width="57" height="57" viewBox="0 0 57 57" fill="none" xmlns="http://www.w3.org/2000/svg">
<path d="M32.5323 9.62053L20.93 21.2229C19.3306 22.8222 19.3306 25.4247 20.93 27.024L30.2119 36.3059C31.8112 37.9053 34.4137 37.9053 36.013 36.3059L52.2563 20.0627C53.8556 18.4633 53.8556 15.8609 52.2563 14.2615L42.9744 4.97964C41.375 3.38028 38.7726 3.38028 37.1732 4.97964L34.8528 7.30008C34.5324 7.62048 34.5324 8.13996 34.8528 8.46036C35.1732 8.78076 35.6926 8.78076 36.013 8.46036L38.3335 6.13992C39.2931 5.18026 40.8545 5.18026 41.8142 6.13992L51.0961 15.4218C52.0557 16.3815 52.0557 17.9429 51.0961 18.9025L34.8528 35.1457C33.8931 36.1054 32.3317 36.1054 31.372 35.1457L22.0902 25.8639C21.1305 24.9042 21.1305 23.3428 22.0902 22.3831L33.6926 10.7808C34.013 10.4604 34.013 9.94092 33.6926 9.62053C33.3722 9.30013 32.8527 9.30013 32.5323 9.62053Z" fill="#2B2A29"/>
<path d="M42.3944 11.0211C42.8475 11.0211 43.2148 10.6538 43.2148 10.2007C43.2148 9.74762 42.8475 9.38031 42.3944 9.38031C41.9413 9.38031 41.574 9.74762 41.574 10.2007C41.574 10.6538 41.9413 11.0211 42.3944 11.0211Z" fill="#2B2A29"/>
<path d="M40.0741 8.70057C40.5272 8.70057 40.8945 8.33326 40.8945 7.88016C40.8945 7.42706 40.5272 7.05975 40.0741 7.05975C39.621 7.05975 39.2537 7.42706 39.2537 7.88016C39.2537 8.33326 39.621 8.70057 40.0741 8.70057Z" fill="#2B2A29"/>
<path d="M47.0355 15.662C47.4886 15.662 47.8559 15.2947 47.8559 14.8416C47.8559 14.3885 47.4886 14.0212 47.0355 14.0212C46.5824 14.0212 46.2151 14.3885 46.2151 14.8416C46.2151 15.2947 46.5824 15.662 47.0355 15.662Z" fill="#2B2A29"/>
<path d="M49.3558 17.9825C49.8089 17.9825 50.1762 17.6152 50.1762 17.1621C50.1762 16.709 49.8089 16.3416 49.3558 16.3416C48.9027 16.3416 48.5354 16.709 48.5354 17.1621C48.5354 17.6152 48.9027 17.9825 49.3558 17.9825Z" fill="#2B2A29"/>
<path d="M45.2951 13.1013C45.6155 12.7809 45.6155 12.2614 45.2951 11.941C44.9747 11.6206 44.4552 11.6206 44.1348 11.941C43.8144 12.2614 43.8144 12.7809 44.1348 13.1013C44.4552 13.4217 44.9747 13.4217 45.2951 13.1013Z" fill="#2B2A29"/>
<path d="M39.494 13.1013C39.8144 13.4217 40.3338 13.4217 40.6542 13.1013C40.9746 12.7809 40.9746 12.2614 40.6542 11.941C40.3338 11.6206 39.8144 11.6206 39.494 11.941C39.1736 12.2614 39.1736 12.7809 39.494 13.1013Z" fill="#2B2A29"/>
<path d="M37.7535 11.0211C38.2066 11.0211 38.5739 10.6538 38.5739 10.2007C38.5739 9.74762 38.2066 9.38031 37.7535 9.38031C37.3004 9.38031 36.9331 9.74762 36.9331 10.2007C36.9331 10.6538 37.3004 11.0211 37.7535 11.0211Z" fill="#2B2A29"/>
<path d="M44.1348 17.7422C44.4552 18.0626 44.9747 18.0626 45.2951 17.7422C45.6155 17.4218 45.6155 16.9023 45.2951 16.5819C44.9747 16.2615 44.4552 16.2615 44.1348 16.5819C43.8144 16.9023 43.8144 17.4219 44.1348 17.7422Z" fill="#2B2A29"/>
<path d="M46.4551 20.0627C46.7755 20.3831 47.295 20.3831 47.6154 20.0627C47.9358 19.7423 47.9358 19.2228 47.6154 18.9024C47.295 18.582 46.7755 18.582 46.4551 18.9024C46.1347 19.2228 46.1347 19.7423 46.4551 20.0627Z" fill="#2B2A29"/>
<path d="M42.3944 15.662C42.8475 15.662 43.2148 15.2947 43.2148 14.8416C43.2148 14.3885 42.8475 14.0212 42.3944 14.0212C41.9413 14.0212 41.574 14.3885 41.574 14.8416C41.574 15.2947 41.9413 15.662 42.3944 15.662Z" fill="#2B2A29"/>
<path d="M37.7535 15.662C38.2066 15.662 38.5739 15.2947 38.5739 14.8416C38.5739 14.3885 38.2066 14.0212 37.7535 14.0212C37.3004 14.0212 36.9331 14.3885 36.9331 14.8416C36.9331 15.2947 37.3004 15.662 37.7535 15.662Z" fill="#2B2A29"/>
<path d="M35.433 13.3416C35.8861 13.3416 36.2534 12.9743 36.2534 12.5212C36.2534 12.0681 35.8861 11.7008 35.433 11.7008C34.9799 11.7008 34.6125 12.0681 34.6125 12.5212C34.6125 12.9743 34.9799 13.3416 35.433 13.3416Z" fill="#2B2A29"/>
<path d="M42.3944 20.3029C42.8475 20.3029 43.2148 19.9356 43.2148 19.4825C43.2148 19.0294 42.8475 18.6621 42.3944 18.6621C41.9413 18.6621 41.574 19.0294 41.574 19.4825C41.574 19.9356 41.9413 20.3029 42.3944 20.3029Z" fill="#2B2A29"/>
<path d="M44.7149 22.6235C45.168 22.6235 45.5353 22.2561 45.5353 21.803C45.5353 21.3499 45.168 20.9826 44.7149 20.9826C44.2618 20.9826 43.8945 21.3499 43.8945 21.803C43.8945 22.2561 44.2618 22.6235 44.7149 22.6235Z" fill="#2B2A29"/>
<path d="M40.0741 17.9825C40.5272 17.9825 40.8945 17.6152 40.8945 17.1621C40.8945 16.709 40.5272 16.3416 40.0741 16.3416C39.621 16.3416 39.2537 16.709 39.2537 17.1621C39.2537 17.6152 39.621 17.9825 40.0741 17.9825Z" fill="#2B2A29"/>
<path d="M35.433 17.9825C35.8861 17.9825 36.2534 17.6152 36.2534 17.1621C36.2534 16.709 35.8861 16.3416 35.433 16.3416C34.9799 16.3416 34.6125 16.709 34.6125 17.1621C34.6125 17.6152 34.9799 17.9825 35.433 17.9825Z" fill="#2B2A29"/>
<path d="M33.1126 15.662C33.5657 15.662 33.9331 15.2947 33.9331 14.8416C33.9331 14.3885 33.5657 14.0212 33.1126 14.0212C32.6595 14.0212 32.2922 14.3885 32.2922 14.8416C32.2922 15.2947 32.6595 15.662 33.1126 15.662Z" fill="#2B2A29"/>
<path d="M40.0741 22.6235C40.5272 22.6235 40.8945 22.2561 40.8945 21.803C40.8945 21.3499 40.5272 20.9826 40.0741 20.9826C39.621 20.9826 39.2537 21.3499 39.2537 21.803C39.2537 22.2561 39.621 22.6235 40.0741 22.6235Z" fill="#2B2A29"/>
<path d="M42.3944 24.9439C42.8475 24.9439 43.2148 24.5766 43.2148 24.1235C43.2148 23.6704 42.8475 23.3031 42.3944 23.3031C41.9413 23.3031 41.574 23.6704 41.574 24.1235C41.574 24.5766 41.9413 24.9439 42.3944 24.9439Z" fill="#2B2A29"/>
<path d="M37.7535 20.3029C38.2066 20.3029 38.5739 19.9356 38.5739 19.4825C38.5739 19.0294 38.2066 18.6621 37.7535 18.6621C37.3004 18.6621 36.9331 19.0294 36.9331 19.4825C36.9331 19.9356 37.3004 20.3029 37.7535 20.3029Z" fill="#2B2A29"/>
<path d="M33.1126 20.3029C33.5657 20.3029 33.9331 19.9356 33.9331 19.4825C33.9331 19.0294 33.5657 18.6621 33.1126 18.6621C32.6595 18.6621 32.2922 19.0294 32.2922 19.4825C32.2922 19.9356 32.6595 20.3029 33.1126 20.3029Z" fill="#2B2A29"/>
<path d="M31.3723 16.582C31.0519 16.2616 30.5324 16.2616 30.212 16.582C29.8916 16.9024 29.8916 17.4219 30.212 17.7422C30.5324 18.0626 31.0519 18.0626 31.3723 17.7422C31.6927 17.4219 31.6927 16.9024 31.3723 16.582Z" fill="#2B2A29"/>
<path d="M37.7535 24.9439C38.2066 24.9439 38.5739 24.5766 38.5739 24.1235C38.5739 23.6704 38.2066 23.3031 37.7535 23.3031C37.3004 23.3031 36.9331 23.6704 36.9331 24.1235C36.9331 24.5766 37.3004 24.9439 37.7535 24.9439Z" fill="#2B2A29"/>
<path d="M39.494 27.024C39.8144 27.3444 40.3338 27.3444 40.6542 27.024C40.9746 26.7036 40.9746 26.1841 40.6542 25.8637C40.3338 25.5433 39.8144 25.5433 39.494 25.8637C39.1736 26.1842 39.1736 26.7036 39.494 27.024Z" fill="#2B2A29"/>
<path d="M35.433 22.6235C35.8861 22.6235 36.2534 22.2561 36.2534 21.803C36.2534 21.3499 35.8861 20.9826 35.433 20.9826C34.9799 20.9826 34.6125 21.3499 34.6125 21.803C34.6125 22.2561 34.9799 22.6235 35.433 22.6235Z" fill="#2B2A29"/>
<path d="M30.7921 22.6235C31.2452 22.6235 31.6125 22.2561 31.6125 21.803C31.6125 21.3499 31.2452 20.9826 30.7921 20.9826C30.339 20.9826 29.9717 21.3499 29.9717 21.803C29.9717 22.2561 30.339 22.6235 30.7921 22.6235Z" fill="#2B2A29"/>
<path d="M29.0517 18.9024C28.7313 18.582 28.2118 18.582 27.8914 18.9024C27.571 19.2228 27.571 19.7423 27.8914 20.0627C28.2118 20.3831 28.7313 20.3831 29.0517 20.0627C29.3721 19.7423 29.3721 19.2228 29.0517 18.9024Z" fill="#2B2A29"/>
<path d="M35.433 27.2644C35.8861 27.2644 36.2534 26.897 36.2534 26.4439C36.2534 25.9908 35.8861 25.6235 35.433 25.6235C34.9799 25.6235 34.6125 25.9908 34.6125 26.4439C34.6125 26.897 34.9799 27.2644 35.433 27.2644Z" fill="#2B2A29"/>
<path d="M37.1734 29.3445C37.4938 29.6649 38.0133 29.6649 38.3337 29.3445C38.6541 29.0241 38.6541 28.5046 38.3337 28.1842C38.0133 27.8638 37.4938 27.8638 37.1734 28.1842C36.853 28.5047 36.853 29.0242 37.1734 29.3445Z" fill="#2B2A29"/>
<path d="M33.1126 24.9439C33.5657 24.9439 33.9331 24.5766 33.9331 24.1235C33.9331 23.6704 33.5657 23.3031 33.1126 23.3031C32.6595 23.3031 32.2922 23.6704 32.2922 24.1235C32.2922 24.5766 32.6595 24.9439 33.1126 24.9439Z" fill="#2B2A29"/>
<path d="M28.4715 24.9439C28.9246 24.9439 29.2919 24.5766 29.2919 24.1235C29.2919 23.6704 28.9246 23.3031 28.4715 23.3031C28.0184 23.3031 27.6511 23.6704 27.6511 24.1235C27.6511 24.5766 28.0184 24.9439 28.4715 24.9439Z" fill="#2B2A29"/>
<path d="M26.1512 22.6235C26.6043 22.6235 26.9716 22.2561 26.9716 21.803C26.9716 21.3499 26.6043 20.9826 26.1512 20.9826C25.6981 20.9826 25.3308 21.3499 25.3308 21.803C25.3308 22.2561 25.6981 22.6235 26.1512 22.6235Z" fill="#2B2A29"/>
<path d="M33.1126 29.5848C33.5657 29.5848 33.9331 29.2175 33.9331 28.7644C33.9331 28.3113 33.5657 27.944 33.1126 27.944C32.6595 27.944 32.2922 28.3113 32.2922 28.7644C32.2922 29.2175 32.6595 29.5848 33.1126 29.5848Z" fill="#2B2A29"/>
<path d="M35.433 31.9053C35.8861 31.9053 36.2534 31.5379 36.2534 31.0848C36.2534 30.6317 35.8861 30.2644 35.433 30.2644C34.9799 30.2644 34.6125 30.6317 34.6125 31.0848C34.6125 31.5379 34.9799 31.9053 35.433 31.9053Z" fill="#2B2A29"/>
<path d="M30.7921 27.2644C31.2452 27.2644 31.6125 26.897 31.6125 26.4439C31.6125 25.9908 31.2452 25.6235 30.7921 25.6235C30.339 25.6235 29.9717 25.9908 29.9717 26.4439C29.9717 26.897 30.339 27.2644 30.7921 27.2644Z" fill="#2B2A29"/>
<path d="M25.5711 25.8639C25.2507 26.1843 25.2507 26.7037 25.5711 27.0241C25.8915 27.3445 26.411 27.3445 26.7314 27.0241C27.0518 26.7037 27.0518 26.1843 26.7314 25.8639C26.4109 25.5435 25.8915 25.5435 25.5711 25.8639Z" fill="#2B2A29"/>
<path d="M23.8307 24.9439C24.2838 24.9439 24.6511 24.5766 24.6511 24.1235C24.6511 23.6704 24.2838 23.3031 23.8307 23.3031C23.3776 23.3031 23.0103 23.6704 23.0103 24.1235C23.0103 24.5766 23.3776 24.9439 23.8307 24.9439Z" fill="#2B2A29"/>
<path d="M30.212 30.5048C29.8916 30.8252 29.8916 31.3446 30.212 31.665C30.5324 31.9854 31.0519 31.9854 31.3723 31.665C31.6927 31.3446 31.6927 30.8252 31.3723 30.5048C31.0519 30.1844 30.5324 30.1844 30.212 30.5048Z" fill="#2B2A29"/>
<path d="M33.1126 34.2258C33.5657 34.2258 33.9331 33.8585 33.9331 33.4054C33.9331 32.9523 33.5657 32.585 33.1126 32.585C32.6595 32.585 32.2922 32.9523 32.2922 33.4054C32.2922 33.8585 32.6595 34.2258 33.1126 34.2258Z" fill="#2B2A29"/>
<path d="M27.8917 28.1843C27.5713 28.5047 27.5713 29.0242 27.8917 29.3446C28.2121 29.665 28.7315 29.665 29.0519 29.3446C29.3723 29.0242 29.3723 28.5047 29.0519 28.1843C28.7314 27.8639 28.2121 27.8639 27.8917 28.1843Z" fill="#2B2A29"/>
<path d="M54.5769 11.9411L45.295 2.65921C42.4162 -0.219656 37.7319 -0.219656 34.853 2.65921L23.2506 14.2615C22.9302 14.5819 22.9302 15.1014 23.2506 15.4218C23.571 15.7422 24.0904 15.7422 24.4108 15.4218L36.0132 3.81938C38.2523 1.58021 41.8956 1.58021 44.1348 3.81938L53.4167 13.1013C55.6558 15.3404 55.6558 18.9837 53.4167 21.2229L37.1734 37.4662C36.0887 38.5509 34.6466 39.1483 33.1126 39.1483H26.0128C23.7934 39.1483 21.7131 40.1322 20.3052 41.8477C20.2733 41.8866 19.153 43.2516 17.7047 45.0164C17.0082 45.8644 15.9802 46.3817 14.884 46.4357C13.7875 46.4895 12.7134 46.0752 11.9371 45.2989C11.1608 44.5226 10.7465 43.4485 10.8004 42.352C10.8542 41.2559 11.3715 40.228 12.2195 39.5315L15.3883 36.931C17.1039 35.523 18.0878 33.4426 18.0878 31.2233V24.1235C18.0878 22.5896 18.6851 21.1474 19.7698 20.0627L22.0903 17.7423C22.4107 17.4219 22.4107 16.9024 22.0903 16.582C21.7699 16.2616 21.2504 16.2616 20.93 16.582L18.6096 18.9024C17.215 20.297 16.447 22.1512 16.447 24.1235V31.2233C16.447 32.9495 15.6817 34.5675 14.3474 35.6626L3.1314 44.8674C2.96382 45.0054 2.80357 45.1507 2.65535 45.2989C0.0963295 47.8579 0.0963295 52.0218 2.65535 54.5808C5.21437 57.1398 9.37821 57.1398 11.9372 54.5808C12.0859 54.4321 12.2312 54.2718 12.369 54.1043C12.4038 54.062 21.5735 42.8887 21.5735 42.8887C22.6685 41.5543 24.2867 40.7891 26.0128 40.7891H33.1126C35.0849 40.7891 36.9391 40.0211 38.3337 38.6265L54.5769 22.3833C57.4558 19.5043 57.4558 14.82 54.5769 11.9411ZM11.1021 53.0614C10.9976 53.1884 10.8882 53.3092 10.7768 53.4205C8.85764 55.3397 5.73472 55.3397 3.81541 53.4205C1.89609 51.5013 1.8962 48.3784 3.81541 46.4591C3.92654 46.3479 4.04742 46.2384 4.17332 46.1346L9.18033 42.0255C9.17256 42.1072 9.16545 42.189 9.16141 42.2714C9.08484 43.8296 9.67356 45.3559 10.7767 46.4591C11.8799 47.5623 13.4062 48.151 14.9643 48.0744C15.0467 48.0704 15.1285 48.0633 15.2102 48.0555C13.0999 50.6272 11.1294 53.0283 11.1021 53.0614Z" fill="#2B2A29"/>
<path d="M4.97575 47.6194C3.69624 48.8989 3.69624 50.9807 4.97575 52.2602C6.25525 53.5398 8.33712 53.5398 9.61663 52.2602C10.8961 50.9807 10.8961 48.8989 9.61663 47.6194C8.33712 46.3399 6.25525 46.3399 4.97575 47.6194ZM8.45636 51.1001C7.81666 51.7398 6.77561 51.7398 6.13591 51.1001C5.49621 50.4603 5.49621 49.4193 6.13591 48.7796C6.77572 48.1398 7.81666 48.1398 8.45636 48.7796C9.09617 49.4193 9.09617 50.4604 8.45636 51.1001Z" fill="#2B2A29"/>
</svg>
