<svg width="53" height="57" viewBox="0 0 53 57" fill="none" xmlns="http://www.w3.org/2000/svg">
<path d="M6.74538 6.63017L3.72154 4.85997C3.33053 4.63105 2.82806 4.76252 2.59915 5.15353C2.37023 5.54453 2.50169 6.047 2.8927 6.27591L5.91644 8.04601C6.30067 8.27132 6.8075 8.14751 7.03883 7.75245C7.26774 7.36155 7.13628 6.85898 6.74538 6.63017ZM7.64311 4.60349C7.94684 4.94123 8.46571 4.96682 8.8016 4.66484C9.13836 4.36188 9.16592 3.84323 8.86295 3.50636L6.40359 0.771812C6.10073 0.435052 5.58208 0.407599 5.24511 0.710454C4.90834 1.01342 4.88078 1.53207 5.18375 1.86894L7.64311 4.60349ZM4.58865 9.82092L1.00022 9.01506C0.557475 8.91542 0.119326 9.19367 0.0201243 9.63564C-0.0791866 10.0777 0.198731 10.5165 0.640708 10.6157L4.22914 11.4216C4.28973 11.4353 4.3501 11.4418 4.4096 11.4418C4.78497 11.4418 5.12348 11.1826 5.20923 10.8011C5.30854 10.3589 5.03062 9.92023 4.58865 9.82092ZM51.6777 23.8825C50.2833 20.5856 47.4928 18.1928 44.0218 17.3177L22.7879 11.9644L16.8105 5.22352C16.0899 4.41066 14.8638 4.31102 14.0192 4.99646C12.4062 6.3049 11.0389 7.86051 9.95548 9.62C8.68654 11.681 7.8483 13.9471 7.46396 16.3553C7.29301 17.4265 7.99278 18.4361 9.05698 18.6541L17.883 20.4602L20.8316 23.4976C21.1474 23.8229 21.6666 23.8302 21.9915 23.5149C22.3166 23.1992 22.3243 22.6799 22.0087 22.355L19.3154 19.5806L22.7424 13.6449L43.6205 18.9085C46.5883 19.6568 48.9742 21.7027 50.1665 24.5216C51.3587 27.3404 51.1647 30.4775 49.6345 33.128C48.1041 35.7786 45.4844 37.5151 42.447 37.8921C39.4098 38.2695 36.4449 37.2258 34.313 35.0297L24.348 24.7647C24.0325 24.4394 23.5133 24.4319 23.1882 24.7474C22.8631 25.0631 22.8554 25.5824 23.1709 25.9073L29.806 32.7421C28.4794 32.9693 27.2978 33.7744 26.6143 34.9592C26.0045 36.0159 25.8423 37.2468 26.1579 38.4251C26.5188 39.772 27.5095 40.882 28.7737 41.4797L25.0755 47.8848C24.3084 49.2132 24.1047 50.761 24.5018 52.2426C24.8988 53.724 25.849 54.962 27.177 55.7284C28.509 56.4971 30.0616 56.6971 31.534 56.3026C33.0154 55.9057 34.2537 54.9556 35.0209 53.6269L41.527 42.3583C41.7535 41.966 41.6191 41.4643 41.2267 41.2377C40.8345 41.0112 40.3326 41.1454 40.1062 41.538L33.6001 52.8068C33.0522 53.7558 32.1676 54.4346 31.1095 54.7181C30.0513 55.0017 28.9462 54.856 27.9974 54.3079C27.0488 53.7603 26.3701 52.8762 26.0865 51.818C25.8029 50.7598 25.9484 49.6543 26.4963 48.7053L33.5167 36.5464C35.628 38.5311 38.3576 39.6087 41.2236 39.6087C41.6957 39.6087 42.1718 39.5794 42.6492 39.5201C46.2016 39.0793 49.2656 37.0483 51.0553 33.9483C52.8451 30.8484 53.072 27.1793 51.6777 23.8825V23.8825ZM17.8806 18.7849L9.38598 17.0467C9.18451 17.0054 9.05184 16.8152 9.084 16.6137C9.4341 14.4198 10.1974 12.3562 11.3525 10.4801C12.3387 8.87834 13.5836 7.46196 15.0528 6.27034C15.1248 6.21193 15.2112 6.18327 15.2969 6.18327C15.4027 6.18327 15.5076 6.22681 15.5828 6.31179L21.336 12.7997L17.8806 18.7849ZM29.5941 40.059L29.1064 39.7776C27.709 38.9711 27.2284 37.1775 28.0353 35.7793C28.5565 34.876 29.5288 34.315 30.5731 34.315C30.8806 34.315 31.1823 34.3637 31.4727 34.459L32.3222 35.334L29.5941 40.059ZM47.6335 31.918C49.3417 28.9595 48.2478 25.2236 45.3989 23.5787C42.4983 21.9039 38.7228 22.932 37.0595 25.8132C35.3764 28.7284 36.3786 32.4694 39.294 34.1527C42.1728 35.8147 45.9327 34.8639 47.6335 31.918ZM38.4804 26.6333C39.6978 24.5246 42.456 23.7739 44.5787 24.9994C46.6719 26.2078 47.428 28.9927 46.2127 31.0977C44.9819 33.2296 42.246 33.9625 40.1143 32.7318C37.9825 31.5009 37.2496 28.7651 38.4804 26.6333V26.6333ZM34.3829 46.7283C35.0179 46.5581 35.5486 46.151 35.8772 45.5816C36.2058 45.0124 36.2932 44.3492 36.123 43.7144C35.9529 43.0794 35.5458 42.5487 34.9766 42.2201C34.4072 41.8914 33.7441 41.804 33.1092 41.9743C32.4742 42.1444 31.9436 42.5515 31.6149 43.1209C30.9365 44.296 31.3406 45.8041 32.5156 46.4824C32.8948 46.7014 33.3156 46.8132 33.7421 46.8132C33.9558 46.8132 34.1711 46.785 34.3829 46.7283V46.7283ZM33.3359 45.0615C32.9442 44.8355 32.8095 44.3327 33.0357 43.941C33.1452 43.7513 33.3221 43.6154 33.5339 43.5588C33.6045 43.5398 33.6761 43.5305 33.7473 43.5305C33.8895 43.5305 34.0299 43.5678 34.1563 43.6408C34.3459 43.7504 34.4818 43.9272 34.5384 44.1389C34.5951 44.3505 34.566 44.5715 34.4564 44.7613V44.7614C34.3468 44.9511 34.17 45.0869 33.9583 45.1436C33.7468 45.2002 33.5256 45.171 33.3359 45.0615V45.0615ZM43.745 31.5674C43.9716 31.1751 43.8371 30.6734 43.4448 30.4469L40.4281 28.7052C40.0355 28.4788 39.5339 28.613 39.3076 29.0054C39.081 29.3978 39.2155 29.8995 39.6078 30.126L42.6245 31.8676C43.0097 32.0903 43.516 31.9639 43.745 31.5674ZM32.2157 50.4853L29.1989 48.7436C28.8063 48.5171 28.3047 48.6514 28.0784 49.0438C27.8519 49.4361 27.9863 49.9378 28.3786 50.1644L31.3954 51.906C31.5247 51.9806 31.6656 52.016 31.8048 52.016C32.0883 52.016 32.364 51.8689 32.5159 51.6058C32.7424 51.2136 32.6079 50.7119 32.2157 50.4853ZM41.2484 27.2842L44.2651 29.026C44.6504 29.249 45.1567 29.1221 45.3856 28.7258C45.6122 28.3334 45.4777 27.8317 45.0854 27.6052L42.0687 25.8635C41.6765 25.637 41.1746 25.7713 40.9482 26.1637C40.7215 26.556 40.8561 27.0577 41.2484 27.2842Z" fill="#2B2A29"/>
</svg>
