<svg width="55" height="57" viewBox="0 0 55 57" fill="none" xmlns="http://www.w3.org/2000/svg">
<path d="M40.0686 56.5H17.0585C15.7017 56.5 14.5978 55.396 14.5978 54.0392V52.9362C8.85167 50.2868 2.75265 42.4266 2.75265 37.5213C2.75265 36.1645 3.85661 35.0606 5.21343 35.0606H8.93654C9.38965 35.0606 9.7568 35.4277 9.7568 35.8808C9.7568 36.3339 9.38965 36.7011 8.93654 36.7011H5.21343C4.76109 36.7011 4.39317 37.069 4.39317 37.5213C4.39317 39.4817 5.7688 42.4532 7.98318 45.2762C10.2528 48.1697 13.0817 50.5137 15.582 51.5784H32.5089C32.962 51.5784 33.3292 51.9456 33.3292 52.3987C33.3292 52.8518 32.962 53.2189 32.5089 53.2189H16.2383V54.0392C16.2383 54.4915 16.6062 54.8594 17.0585 54.8594H40.0686C40.5209 54.8594 40.8888 54.4915 40.8888 54.0392V53.2189H35.7902C35.3371 53.2189 34.9699 52.8518 34.9699 52.3987C34.9699 51.9456 35.3371 51.5784 35.7902 51.5784H41.545C44.0453 50.5137 46.8743 48.1697 49.1439 45.2762C51.3582 42.4531 52.7338 39.4817 52.7338 37.5213C52.7338 37.069 52.3659 36.7011 51.9135 36.7011H42.5559L40.4822 38.7749C40.3283 38.9287 40.1197 39.0151 39.9021 39.0151C39.6845 39.0151 39.476 38.9287 39.322 38.7749L35.5864 35.0392C35.2661 34.7188 35.2661 34.1994 35.5864 33.8792C35.9069 33.5589 36.4262 33.5589 36.7465 33.8792L39.9021 37.0349L42.3437 34.5931C42.4987 34.4383 42.584 34.2323 42.584 34.0132C42.584 33.794 42.4987 33.588 42.3437 33.4332L38.0281 29.1174L29.2064 37.9392L33.522 42.2548C33.8418 42.5749 34.3623 42.5747 34.682 42.2548L35.2621 41.6748L32.1064 38.5192C31.7859 38.1988 31.7859 37.6795 32.1062 37.3592C32.4267 37.0389 32.9461 37.0389 33.2662 37.3592L36.4219 40.5149L37.0252 39.9115C37.3457 39.5911 37.865 39.5914 38.1852 39.9115C38.5056 40.2319 38.5056 40.7512 38.1852 41.0715L35.8419 43.4149C35.3771 43.8797 34.7592 44.1356 34.1019 44.1356C33.4445 44.1356 32.8265 43.8797 32.3617 43.4149L27.9475 39.0006C27.1626 39.377 26.2139 39.317 25.4665 38.7891L22.5096 36.7009C22.5048 36.701 22.5 36.701 22.4951 36.701H21.9799C20.623 36.701 19.5191 37.8049 19.5191 39.1618V43.6955C19.5191 44.3649 19.2412 45.014 18.7567 45.4761C18.2652 45.9449 17.6216 46.1859 16.9403 46.1533C15.6266 46.0915 14.5975 44.9915 14.5975 43.6491V36.701H12.2174C11.7642 36.701 11.3971 36.3338 11.3971 35.8807C11.3971 35.4276 11.7642 35.0605 12.2174 35.0605H20.1869L19.4773 34.5592C18.6725 33.991 18.285 33.001 18.4899 32.0372L19.5453 27.0753C19.9998 24.9382 19.3488 22.7401 17.8039 21.1952L1.30244 4.69379C0.829091 4.22034 0.566608 3.5649 0.582466 2.89545C0.598434 2.2165 0.884541 1.59026 1.38785 1.13233C2.36057 0.247001 3.86591 0.297091 4.81533 1.2464L21.2843 17.7154C22.8291 19.2603 25.0276 19.9114 27.1643 19.4567C27.6072 19.3623 28.043 19.6453 28.1373 20.0883C28.2315 20.5315 27.9487 20.967 27.5057 21.0613C24.8233 21.6322 22.0635 20.8146 20.1242 18.8754L3.65527 2.40647C3.33209 2.08307 2.81018 2.05584 2.49203 2.34555C2.3236 2.49878 2.22791 2.70789 2.22255 2.93406C2.21719 3.16056 2.30239 3.37361 2.4625 3.53373L18.9643 20.0353C20.9035 21.9746 21.7208 24.734 21.1502 27.4167L20.0948 32.3786C20.0264 32.7 20.1557 33.0298 20.4239 33.2194L26.4132 37.4493C26.7405 37.6803 27.1834 37.6425 27.4665 37.3593L37.4482 27.3774C37.7315 27.0942 37.7693 26.6513 37.5382 26.3241L33.3084 20.3349C33.119 20.0669 32.7891 19.9373 32.4677 20.0059L30.9241 20.3341C30.4813 20.428 30.0455 20.1455 29.9512 19.7024C29.857 19.2593 30.1398 18.8237 30.5829 18.7294L32.1264 18.4012C33.0898 18.1959 34.0798 18.5837 34.6483 19.3885L38.8782 25.3777C39.4059 26.125 39.4659 27.0736 39.0896 27.8588L43.5039 32.273C44.2565 33.0257 44.4187 34.1482 43.9907 35.0605H51.9135C53.2704 35.0605 54.3743 36.1644 54.3743 37.5212C54.3743 42.4265 48.2753 50.2867 42.5292 52.9361V54.0391C42.5293 55.3961 41.4254 56.5 40.0686 56.5ZM16.2383 36.7011V43.6492C16.2383 44.1063 16.5879 44.4945 17.0177 44.5148C17.2447 44.526 17.4607 44.4454 17.6246 44.2891C17.7886 44.1328 17.8788 43.922 17.8788 43.6955V39.1618C17.8788 38.2392 18.185 37.3868 18.701 36.701H16.2383V36.7011Z" fill="#2B2A29"/>
</svg>
