<svg width="56" height="57" viewBox="0 0 56 57" fill="none" xmlns="http://www.w3.org/2000/svg">
<path d="M16.6644 45.0212C14.9777 45.0212 13.5288 45.9896 12.883 47.5486C12.2341 49.1153 12.5719 50.8293 13.7644 52.0216C14.5565 52.8135 15.5768 53.2287 16.6306 53.2287C17.1629 53.2287 17.7039 53.1226 18.2278 52.9056C19.7933 52.257 20.7658 50.8071 20.7658 49.1218C20.7657 46.8608 18.9259 45.0212 16.6644 45.0212ZM17.5997 51.39C16.8658 51.6939 15.7777 51.7147 14.9242 50.8615C14.0703 50.0077 14.093 48.9147 14.3987 48.1765C14.702 47.4442 15.4564 46.6617 16.6643 46.6617C18.0212 46.6617 19.1251 47.7653 19.1251 49.1218C19.1251 50.3282 18.3371 51.0845 17.5997 51.39Z" fill="#2B2A29"/>
<path d="M55.2689 1.22964C55.2662 1.22702 55.2632 1.22472 55.2606 1.22209C54.7974 0.763047 54.1591 0.5 53.5075 0.5H53.5043C52.9411 0.5 52.3898 0.693594 51.9523 1.04458C45.997 5.8013 40.0196 10.7111 34.1857 15.6374C32.7671 16.8352 31.3473 18.0423 29.9288 19.2562L13.7328 3.06036C12.1335 1.4613 9.53146 1.46152 7.93229 3.06036L0.24027 10.7525C-0.0800898 11.073 -0.0800898 11.5923 0.24027 11.9126C0.560629 12.2329 1.08005 12.2329 1.4003 11.9126L6.77225 6.54078L7.94618 7.7147L2.57433 13.0865C2.25397 13.407 2.25397 13.9263 2.57433 14.2467C2.73446 14.4068 2.94446 14.4869 3.15435 14.4869C3.36424 14.4869 3.57424 14.4068 3.73436 14.2467L9.10632 8.87484L10.2802 10.0488L4.90829 15.4206C4.58793 15.7411 4.58793 16.2604 4.90829 16.5807C5.06841 16.7409 5.27841 16.8209 5.4883 16.8209C5.69819 16.8209 5.90819 16.7409 6.06832 16.5807L11.4403 11.2088L12.6142 12.3827L7.24235 17.7546C6.92199 18.075 6.92199 18.5943 7.24235 18.9147C7.40247 19.0748 7.61247 19.1549 7.82236 19.1549C8.03225 19.1549 8.24225 19.0748 8.40238 18.9147L13.7742 13.5429L14.9481 14.7168L9.5763 20.0886C9.25594 20.4091 9.25594 20.9284 9.5763 21.2488C9.73643 21.4089 9.94643 21.489 10.1563 21.489C10.3662 21.489 10.5762 21.4089 10.7363 21.2488L16.1082 15.8769L17.2821 17.0508L11.9103 22.4227C11.5899 22.7432 11.5899 23.2625 11.9103 23.5828C12.0704 23.743 12.2804 23.823 12.4903 23.823C12.7002 23.823 12.9102 23.743 13.0703 23.5828L18.4421 18.211L19.6161 19.3849L14.2442 24.7568C13.9238 25.0772 13.9238 25.5965 14.2442 25.9169C14.4043 26.077 14.6143 26.1571 14.8242 26.1571C15.0341 26.1571 15.2441 26.077 15.4042 25.9169L20.7761 20.545L21.9501 21.7191L16.5783 27.0909C16.2579 27.4114 16.2579 27.9307 16.5783 28.2511C16.7384 28.4112 16.9484 28.4912 17.1583 28.4912C17.3682 28.4912 17.5782 28.4112 17.7383 28.2511L23.1103 22.8791L24.3255 24.0944C21.8067 26.2879 19.3009 28.4944 16.8234 30.7037C16.8223 30.7037 16.8223 30.7037 16.8223 30.7049C16.0863 31.3595 15.2835 32.1135 14.4915 32.8278C14.0063 33.1787 14.0987 33.7957 14.3395 34.0365C14.3395 34.0365 14.3395 34.0375 14.3406 34.0375C15.1303 34.9935 15.5667 36.2141 15.5667 37.4762C15.5667 38.9517 14.999 40.332 13.9677 41.3623C13.9573 41.3727 11.5044 43.8257 11.4936 43.8363C7.92638 47.4867 1.64421 44.9957 1.6406 39.8258C1.64279 36.687 4.17777 34.0946 7.38049 34.0923C9.12491 34.0934 10.7535 34.87 11.8483 36.2208C12.1453 36.5868 12.6905 36.6263 13.0362 36.3127C13.0405 36.3094 13.0438 36.3061 13.0482 36.3017L13.0558 36.295C13.4401 35.9496 13.413 35.3272 12.9837 35.0197C11.5815 33.3879 9.54163 32.4517 7.38596 32.4517H7.37502C3.27368 32.4517 -0.00473048 35.7915 8.20202e-05 39.8258C-0.00352735 42.8657 1.85421 45.5509 4.60247 46.6672C6.23435 47.328 8.02197 47.3735 9.63679 46.8559C8.09766 51.6439 11.6798 56.5 16.6586 56.5H16.6673C20.7356 56.5 24.0512 53.2065 24.0467 49.1216C24.0489 47.1802 23.3008 45.3481 21.9434 43.9611C21.9442 43.9603 23.6184 42.057 23.6184 42.057C26.5737 38.7685 29.497 35.4649 32.3848 32.1533L33.6208 33.3893L28.2489 38.7611C27.9286 39.0816 27.9286 39.6009 28.2489 39.9213C28.4091 40.0814 28.6191 40.1615 28.829 40.1615C29.0389 40.1615 29.2489 40.0814 29.4092 39.9213L34.781 34.5494L35.9549 35.7233L30.5831 41.0952C30.2627 41.4157 30.2627 41.935 30.5831 42.2553C30.7433 42.4155 30.9533 42.4955 31.1632 42.4955C31.3731 42.4955 31.5831 42.4155 31.7433 42.2553L37.1152 36.8835L38.289 38.0573L32.9171 43.4291C32.5968 43.7496 32.5968 44.2689 32.9171 44.5893C33.0774 44.7494 33.2874 44.8295 33.4973 44.8295C33.7072 44.8295 33.9172 44.7494 34.0774 44.5893L39.4492 39.2174L40.6231 40.3913L35.2512 45.7632C34.9308 46.0837 34.9308 46.603 35.2512 46.9233C35.4114 47.0835 35.6214 47.1635 35.8313 47.1635C36.0412 47.1635 36.2512 47.0835 36.4115 46.9233L41.7833 41.5514L42.9572 42.7253L37.5854 48.0972C37.265 48.4176 37.265 48.9369 37.5854 49.2573C37.7456 49.4174 37.9556 49.4975 38.1655 49.4975C38.3754 49.4975 38.5854 49.4174 38.7456 49.2573L44.1175 43.8855L45.2913 45.0593L39.9194 50.4311C39.5991 50.7516 39.5991 51.2709 39.9194 51.5912C40.0797 51.7514 40.2897 51.8314 40.4996 51.8314C40.7095 51.8314 40.9195 51.7514 41.0797 51.5912L46.4515 46.2194L47.6254 47.3932L42.2535 52.7651C41.9331 53.0855 41.9331 53.6048 42.2535 53.9252C42.4137 54.0853 42.6237 54.1654 42.8336 54.1654C43.0435 54.1654 43.2535 54.0853 43.4138 53.9252L48.7856 48.5534L49.9594 49.7272L44.5876 55.099C44.2672 55.4195 44.2672 55.9388 44.5876 56.2592C44.7478 56.4193 44.9578 56.4993 45.1677 56.4993C45.3776 56.4993 45.5876 56.4193 45.7478 56.2592L51.6989 50.308C51.6991 50.3077 51.6995 50.3074 51.6998 50.3072C51.7001 50.307 51.7003 50.3066 51.7006 50.3063L53.4398 48.567C54.2145 47.7923 54.6412 46.7623 54.6412 45.6667C54.6412 44.5711 54.2145 43.5411 53.4399 42.7664L37.226 26.5537C43.5155 19.2166 49.6127 11.8573 55.4547 4.54578C56.2475 3.55364 56.1674 2.12805 55.2689 1.22964ZM7.93239 5.38064L9.09243 4.22061C10.0519 3.26117 11.6132 3.26117 12.5727 4.22061L28.6802 20.3282C27.641 21.2209 26.6027 22.116 25.5665 23.015L7.93239 5.38064ZM52.2795 43.9273C52.7443 44.3921 53.0004 45.01 53.0004 45.6674C53.0004 46.3247 52.7443 46.9427 52.2795 47.4074L51.1194 48.5675C50.5774 48.0256 34.6284 32.0766 33.4646 30.9128C34.3647 29.8767 35.2618 28.8399 36.1545 27.8025L52.2795 43.9273ZM22.8545 40.4508C22.457 40.1464 21.3969 39.6194 21.2206 38.1227C21.1714 37.7094 20.8225 37.3986 20.4079 37.3986C19.9123 37.3986 19.5347 37.829 19.5909 38.3153C19.592 38.3153 19.592 38.3153 19.592 38.3153C19.7484 39.6529 20.4746 40.8353 21.5837 41.5582C21.6417 41.5966 21.6996 41.6358 21.7598 41.6796C21.1908 42.3287 20.7212 42.8753 20.1826 43.47C20.0328 43.6363 19.9562 43.8604 19.9737 44.0835C19.9901 44.3067 20.1006 44.5167 20.2745 44.6577C21.6512 45.7816 22.4049 47.399 22.4062 49.1215C22.4039 52.2828 19.8571 54.8571 16.6641 54.8593C13.5082 54.8551 10.9221 52.3116 10.9221 49.1215C10.9258 46.5252 12.5678 45.1348 12.6939 44.9565L15.1275 42.5229C16.4682 41.1821 17.2077 39.3683 17.2077 37.4762C17.2088 36.0937 16.8129 34.7582 16.0649 33.6165C16.7071 33.0291 17.2657 32.5079 17.9144 31.9298L17.9177 31.9254C35.7036 16.0669 52.7668 2.43473 53.0875 2.25109C52.8676 2.47105 20.8618 34.463 20.7142 34.6294C20.4134 34.9684 20.4451 35.488 20.7831 35.7877C21.1228 36.0902 21.6431 36.0547 21.9414 35.7188C22.0395 35.607 54.0133 3.64486 54.2477 3.41047C54.1806 3.52848 40.9698 20.2618 22.8545 40.4508Z" fill="#2B2A29"/>
<path d="M10.2839 36.9302C7.69644 34.3428 3.28152 36.2072 3.28174 39.8298C3.28174 40.9248 3.70863 41.9545 4.48377 42.7296C5.28341 43.5291 6.33341 43.9287 7.38385 43.9287C8.43396 43.9287 9.4844 43.5289 10.2839 42.7296C11.8848 41.129 11.8851 38.5309 10.2839 36.9302ZM9.124 41.5693C8.16446 42.5284 6.60324 42.5287 5.64369 41.5693C4.10697 40.0327 5.183 37.3707 7.38385 37.3707C9.59104 37.3709 10.6537 40.0398 9.124 41.5693Z" fill="#2B2A29"/>
</svg>
