<svg width="57" height="57" viewBox="0 0 57 57" fill="none" xmlns="http://www.w3.org/2000/svg">
<path d="M53.6392 15.7243C53.4319 15.3216 52.9371 15.1632 52.5343 15.3707C52.1315 15.5781 51.9732 16.0728 52.1807 16.4756C54.1148 20.2307 55.0955 24.2763 55.0955 28.5C55.0955 43.0346 43.2707 54.8594 28.7361 54.8594C14.2015 54.8594 2.37671 43.0346 2.37671 28.5C2.37671 25.468 2.88662 22.5084 3.89287 19.6845C4.35891 20.1707 4.86805 20.6152 5.41351 21.0126C4.63683 23.4263 4.24308 25.9425 4.24308 28.5C4.24308 42.0055 15.2306 52.993 28.7361 52.993C42.2416 52.993 53.2291 42.0055 53.2291 28.5C53.2291 24.658 52.3546 20.9703 50.6301 17.5392C50.4266 17.1344 49.9335 16.9712 49.5288 17.1747C49.124 17.3781 48.9608 17.8713 49.1643 18.276C50.773 21.4763 51.5886 24.9161 51.5886 28.5C51.5886 41.1009 41.3371 51.3524 28.7362 51.3524C16.1353 51.3524 5.88371 41.1009 5.88371 28.5C5.88371 26.2514 6.21019 24.0375 6.85387 21.9061C8.41815 22.7213 10.1948 23.183 12.0775 23.183C18.3312 23.183 23.419 18.0952 23.419 11.8414C23.419 8.62777 22.0753 5.72222 19.9203 3.65656C22.7442 2.6502 25.7038 2.14062 28.7361 2.14062C34.7 2.14062 40.334 4.09964 45.029 7.80592C45.3633 8.06984 45.8439 8.03397 46.1354 7.72356L46.8376 6.97555L47.7758 11.6828L43.0187 11.0435L43.7283 10.2875C43.8868 10.1188 43.9667 9.89072 43.948 9.65994C43.9293 9.42916 43.8139 9.21697 43.6303 9.07577C39.3177 5.75973 34.1673 4.007 28.7361 4.007C27.3756 4.007 26.01 4.1202 24.6775 4.34333C24.2307 4.41814 23.9292 4.84098 24.004 5.28789C24.0788 5.73469 24.501 6.03678 24.9485 5.96142C26.1918 5.75328 27.4662 5.64762 28.7362 5.64762C33.4998 5.64762 38.0318 7.09302 41.9008 9.83723L40.7317 11.0826C40.5214 11.3066 40.4539 11.6293 40.5568 11.9189C40.6597 12.2084 40.9159 12.4161 41.2204 12.457L48.6954 13.4616C48.7319 13.4665 48.7683 13.4689 48.8048 13.4689C49.0296 13.4689 49.2466 13.3764 49.4027 13.21C49.5841 13.0169 49.6609 12.748 49.6092 12.4883L48.1352 5.09156C48.0751 4.79023 47.8517 4.54764 47.5562 4.4632C47.2607 4.37866 46.9429 4.46637 46.7326 4.69048L45.4479 6.05888C40.583 2.4192 34.8216 0.5 28.7361 0.5C25.1823 0.5 21.7223 1.16095 18.4452 2.46098C16.6287 1.22406 14.4362 0.5 12.0775 0.5C5.82388 0.5 0.736084 5.5878 0.736084 11.8414C0.736084 14.2 1.46015 16.3925 2.69707 18.209C1.39704 21.4864 0.736084 24.9465 0.736084 28.5C0.736084 43.9393 13.2968 56.5 28.7361 56.5C44.1753 56.5 56.7361 43.9393 56.7361 28.5C56.7361 24.0123 55.6942 19.714 53.6392 15.7243V15.7243ZM12.0775 2.14062C17.4266 2.14062 21.7784 6.49244 21.7784 11.8414C21.7784 17.1904 17.4266 21.5423 12.0775 21.5423C6.72841 21.5423 2.37671 17.1905 2.37671 11.8414C2.37671 6.49233 6.72852 2.14062 12.0775 2.14062V2.14062Z" fill="#2B2A29"/>
<path d="M13.0568 14.0346H15.6986C15.6955 14.466 15.6922 14.8796 15.689 15.2538C15.6851 15.7068 16.0492 16.0772 16.5022 16.0811H16.5094C16.9591 16.0811 17.3257 15.7185 17.3295 15.2678C17.3316 15.0354 17.3353 14.5894 17.3394 14.0345H17.4113C17.8644 14.0345 18.2317 13.6672 18.2317 13.2142C18.2317 12.7612 17.8644 12.3939 17.4113 12.3939H17.3502C17.3597 10.741 17.3644 8.98509 17.3439 8.739C17.2965 8.17025 16.9536 7.70595 16.4702 7.55622C15.9898 7.40736 15.4802 7.59209 15.1068 8.05015C14.7104 8.53643 12.8876 11.8225 12.3384 12.818C12.1982 13.0721 12.2027 13.3814 12.3502 13.6313C12.4979 13.8813 12.7665 14.0346 13.0568 14.0346V14.0346ZM15.7181 10.1657C15.7175 10.7902 15.7141 11.5776 15.7094 12.394H14.451C14.9145 11.5655 15.3655 10.7713 15.7181 10.1657Z" fill="#2B2A29"/>
<path d="M7.09098 10.494C7.5357 10.5814 7.96675 10.2918 8.05403 9.8472C8.14142 9.40204 8.53517 9.07895 8.99017 9.07895C9.50139 9.07895 9.92008 9.48309 9.94326 9.98873L9.92237 10.1524C9.83662 10.4903 9.6345 10.8884 9.32103 11.3363C8.2229 12.9052 7.56786 13.763 7.21578 14.2238C6.77401 14.8023 6.57244 15.0662 6.71167 15.5188C6.7937 15.7855 6.99561 15.99 7.26522 16.0799C7.37306 16.1159 7.47631 16.1505 8.83934 16.1505C9.36817 16.1505 10.0869 16.1453 11.0687 16.133C11.5218 16.1273 11.8843 15.7554 11.8787 15.3024C11.873 14.8494 11.5019 14.4878 11.0481 14.4925C10.3735 14.501 9.65911 14.5066 9.05776 14.5081C9.43992 13.9961 9.96426 13.2784 10.665 12.2771C11.1107 11.6402 11.4015 11.0377 11.5292 10.4865C11.5354 10.4597 11.5404 10.4326 11.5437 10.4052L11.578 10.137C11.5825 10.1026 11.5847 10.0678 11.5847 10.033C11.5847 8.60229 10.4207 7.43832 8.98995 7.43832C7.75281 7.43832 6.68214 8.31836 6.44392 9.531C6.35686 9.9755 6.64648 10.4068 7.09098 10.494V10.494Z" fill="#2B2A29"/>
<path d="M30.2498 18.6809C30.4674 19.0782 30.9658 19.2239 31.3634 19.0064C31.7607 18.7887 31.9064 18.2902 31.6889 17.8928C30.428 15.5907 29.4665 14.0909 29.4261 14.0283C29.2752 13.7935 29.0152 13.6516 28.7361 13.6516C28.4569 13.6516 28.197 13.7935 28.046 14.0283C27.9644 14.1553 26.0243 17.1845 24.053 21.2367C21.3801 26.731 20.0249 31.2396 20.0249 34.6375C20.0249 39.4409 23.9328 43.3488 28.7361 43.3488C33.5394 43.3488 37.4472 39.4409 37.4472 34.6375C37.4472 31.239 36.0914 26.7292 33.4177 21.2337C33.2195 20.8263 32.7283 20.6567 32.3212 20.8549C31.9137 21.0531 31.7442 21.5441 31.9424 21.9514C34.4704 27.1473 35.8066 31.534 35.8066 34.6374C35.8066 38.5361 32.6347 41.708 28.7361 41.708C24.8374 41.708 21.6655 38.5361 21.6655 34.6374C21.6655 28.4377 26.8364 19.2179 28.7369 16.0391C29.1287 16.6928 29.6583 17.6008 30.2498 18.6809Z" fill="#2B2A29"/>
</svg>
