<svg width="57" height="57" viewBox="0 0 57 57" fill="none" xmlns="http://www.w3.org/2000/svg">
<path d="M13.1961 39.6518C12.7429 39.6518 12.3755 40.0192 12.3755 40.4724V42.1963C12.3755 42.6495 12.7429 43.0169 13.1961 43.0169C13.6494 43.0169 14.0168 42.6495 14.0168 42.1963V40.4724C14.0167 40.0192 13.6494 39.6518 13.1961 39.6518Z" fill="#2B2A29"/>
<path d="M21.1969 11.3794C21.1946 11.3732 21.1922 11.3671 21.1897 11.3609C21.0424 10.9975 20.694 10.7625 20.3022 10.7625C19.9103 10.7625 19.562 10.9974 19.4146 11.3609C19.4123 11.3662 19.4104 11.3717 19.4083 11.377L17.1419 17.3237C16.9805 17.7472 17.1929 18.2214 17.6165 18.3827C18.0398 18.5444 18.5142 18.3317 18.6755 17.9081L19.0378 16.9575H21.5484L21.9064 17.9056C22.0305 18.2342 22.3427 18.4366 22.6742 18.4366C22.7705 18.4366 22.8685 18.4196 22.9639 18.3835C23.3878 18.2234 23.6018 17.75 23.4418 17.3259L21.1969 11.3794ZM19.6633 15.3163L20.2992 13.6479L20.9288 15.3163H19.6633Z" fill="#2B2A29"/>
<path d="M42.3953 18.4458C42.8486 18.4458 43.216 18.0784 43.216 17.6252V14.2191L45.8031 17.9674C45.8058 17.9711 45.8084 17.9748 45.811 17.9787C46.0535 18.3176 46.4527 18.4588 46.8281 18.3385C47.2103 18.2158 47.4572 17.8567 47.4572 17.4158L47.4014 11.5684C47.397 11.1152 47.0255 10.7514 46.573 10.7557C46.1198 10.76 45.7559 11.1309 45.7603 11.5841L45.7935 15.0642L43.0707 11.1193C42.8668 10.824 42.4944 10.6953 42.1512 10.8021C41.8083 10.909 41.5747 11.2264 41.5747 11.5856V17.6253C41.5747 18.0784 41.9421 18.4458 42.3953 18.4458V18.4458Z" fill="#2B2A29"/>
<path d="M28.937 16.7922C28.9353 16.7922 28.9336 16.7922 28.9319 16.7922C28.4905 16.7948 28.0239 16.7968 27.6462 16.7974V11.5824C27.6462 11.1292 27.2788 10.7618 26.8255 10.7618C26.3723 10.7618 26.0049 11.1292 26.0049 11.5824V17.6128C26.0049 18.0068 26.285 18.3452 26.672 18.4189C26.7367 18.4313 26.7796 18.4395 27.46 18.4395C27.7847 18.4395 28.2548 18.4376 28.9419 18.4335C29.3951 18.4307 29.7603 18.061 29.7575 17.6078C29.7547 17.1563 29.3879 16.7922 28.937 16.7922V16.7922Z" fill="#2B2A29"/>
<path d="M13.437 13.8788C12.7055 13.6088 12.0252 13.3149 11.8064 13.2189C11.6748 13.1086 11.6794 12.9574 11.6883 12.8937C11.7018 12.7997 11.7708 12.5699 12.1213 12.4643C12.9366 12.2193 13.698 12.8195 13.7201 12.8371C14.0668 13.1249 14.5812 13.0792 14.8717 12.7342C15.1636 12.3876 15.1194 11.8699 14.7727 11.5779C14.7146 11.529 13.331 10.3863 11.6477 10.8928C10.7892 11.1517 10.1823 11.8297 10.0635 12.662C9.95202 13.4441 10.2921 14.1958 10.9507 14.6237C10.9863 14.6469 11.0237 14.6672 11.0624 14.6845C11.0973 14.7002 11.9294 15.0718 12.869 15.4187C13.0631 15.4903 13.6908 15.7552 13.6177 16.1642C13.5625 16.4744 13.1774 16.7952 12.6286 16.7952C12.0474 16.7952 11.4887 16.562 11.1345 16.1716C10.83 15.8359 10.3108 15.8107 9.97532 16.1151C9.63964 16.4196 9.61438 16.9386 9.91888 17.2743C10.5889 18.0129 11.5767 18.4365 12.6286 18.4365C13.933 18.4365 15.0287 17.602 15.2335 16.4524C15.3883 15.585 14.9973 14.4535 13.437 13.8788V13.8788Z" fill="#2B2A29"/>
<path d="M35.3606 18.4365C37.4765 18.4365 39.198 16.715 39.198 14.5992C39.198 12.4833 37.4765 10.7619 35.3606 10.7619C33.2448 10.7619 31.5234 12.4833 31.5234 14.5992C31.5234 16.715 33.2448 18.4365 35.3606 18.4365V18.4365ZM35.3606 12.403C36.5715 12.403 37.5568 13.3882 37.5568 14.5992C37.5568 15.8102 36.5716 16.7953 35.3606 16.7953C34.1499 16.7953 33.1646 15.8102 33.1646 14.5992C33.1646 13.3882 34.1499 12.403 35.3606 12.403V12.403Z" fill="#2B2A29"/>
<path d="M53.6922 29.5401V22.9104H54.7132C55.7435 22.9104 56.5818 22.0721 56.5818 21.0419V8.15941C56.5818 7.12921 55.7435 6.29096 54.7132 6.29096H51.335L49.3654 1.89977C49.2306 1.59483 48.915 0.880615 48.0847 0.880615H9.07891C8.24843 0.880615 7.93299 1.59483 7.79999 1.89562L5.82862 6.29096H2.45024C1.42004 6.29096 0.581787 7.12921 0.581787 8.15941V21.0419C0.581787 22.0721 1.42004 22.9104 2.45024 22.9104H3.47126V49.5873C1.87733 49.8108 0.646756 51.1826 0.646756 52.837V54.7407C0.646756 55.501 1.26516 56.1194 2.02543 56.1194H55.1378C55.8963 56.1194 56.5134 55.501 56.5134 54.7407V52.837C56.5134 51.1827 55.2843 49.8111 53.6921 49.5874V42.1964V29.5401H53.6922ZM9.2993 2.56313C9.30455 2.55132 9.3109 2.5371 9.31757 2.5219H47.8459C47.8532 2.5383 47.8601 2.55394 47.8661 2.56729L49.5362 6.29096H7.62729L9.2993 2.56313ZM30.2979 22.9104H52.051V28.7195H31.7426C30.9278 28.7195 30.2647 29.3116 30.2647 30.0393V41.697C30.2647 42.437 30.9139 43.0168 31.7426 43.0168H52.051V49.5547H40.6345C40.1812 49.5547 39.8138 49.9221 39.8138 50.3753C39.8138 50.8286 40.1812 51.196 40.6345 51.196H53.2345C54.1376 51.196 54.8724 51.9322 54.8724 52.8371V54.4783H2.28804V52.837C2.28804 51.9321 3.02424 51.1958 3.92921 51.1958H9.38276H24.2707H36.8457C37.299 51.1958 37.6664 50.8285 37.6664 50.3752C37.6664 49.922 37.299 49.5546 36.8457 49.5546H25.0913V30.6904C25.0913 29.6037 24.2072 28.7196 23.1205 28.7196H10.5299C9.44477 28.7196 8.56211 29.6037 8.56211 30.6904V49.5547H5.11254V22.9104H26.5122C26.9654 22.9104 27.3328 22.543 27.3328 22.0897C27.3328 21.6365 26.9654 21.2691 26.5122 21.2691H2.45024C2.32708 21.2691 2.22296 21.165 2.22296 21.0418V19.1649H3.83919C4.29244 19.1649 4.65983 18.7976 4.65983 18.3443C4.65983 17.8911 4.29244 17.5237 3.83919 17.5237H2.22307V15.4195H3.8393C4.29255 15.4195 4.65994 15.0521 4.65994 14.5989C4.65994 14.1456 4.29255 13.7782 3.8393 13.7782H2.22307V11.6772H3.8393C4.29255 11.6772 4.65994 11.3098 4.65994 10.8566C4.65994 10.4033 4.29255 10.036 3.8393 10.036H2.22307V8.15908C2.22307 8.03593 2.32719 7.9318 2.45035 7.9318H54.7132C54.8364 7.9318 54.9406 8.03593 54.9406 8.15908V10.036H53.3212C52.868 10.036 52.5006 10.4033 52.5006 10.8566C52.5006 11.3098 52.868 11.6772 53.3212 11.6772H54.9406V13.7782H53.3212C52.868 13.7782 52.5006 14.1456 52.5006 14.5989C52.5006 15.0521 52.868 15.4195 53.3212 15.4195H54.9406V17.5237H53.3212C52.868 17.5237 52.5006 17.8911 52.5006 18.3443C52.5006 18.7976 52.868 19.1649 53.3212 19.1649H54.9406V21.0418C54.9406 21.165 54.8365 21.2691 54.7132 21.2691H30.2979C29.8446 21.2691 29.4772 21.6365 29.4772 22.0897C29.4772 22.543 29.8446 22.9104 30.2979 22.9104V22.9104ZM52.051 30.3608V41.3756L31.906 41.3751V30.3608H52.051ZM10.2034 49.5547V30.6904C10.2034 30.5118 10.3529 30.3608 10.5299 30.3608H23.1205C23.2991 30.3608 23.4501 30.5117 23.4501 30.6904V49.5547H10.2034Z" fill="#2B2A29"/>
</svg>
