<svg width="50" height="57" viewBox="0 0 50 57" fill="none" xmlns="http://www.w3.org/2000/svg">
<path d="M20.2062 56.5H7.99777C6.25995 56.5 4.7036 55.3968 4.12505 53.7547L4.07241 53.6055C2.6892 49.683 0.374268 43.1179 0.374268 32.312C0.374268 20.5262 3.77384 10.5181 5.22545 6.24438L5.37922 5.79105C5.79304 4.56775 6.93886 3.7459 8.23034 3.7459H10.8185C11.2719 3.7459 11.6393 4.11332 11.6393 4.56676C11.6393 5.02021 11.2719 5.38762 10.8185 5.38762H8.23034C7.64326 5.38762 7.12251 5.76117 6.93437 6.31706L6.77994 6.77225C6.75159 6.85587 6.72259 6.94135 6.69271 7.02935H10.5709C10.8194 7.02935 11.0548 7.14208 11.2106 7.33591C11.2187 7.34565 12.3307 8.67107 14.102 8.67107C15.8704 8.67107 16.9826 7.34926 16.9934 7.33591C17.1493 7.14208 17.3845 7.02935 17.6331 7.02935H21.5113C21.4817 6.94201 21.4528 6.85664 21.4243 6.77291L21.2697 6.31706C21.0815 5.76117 20.5608 5.38762 19.9737 5.38762H14.1021C13.6487 5.38762 13.2813 5.02021 13.2813 4.56676C13.2813 4.11332 13.6487 3.7459 14.1021 3.7459H19.9736C21.2651 3.7459 22.4109 4.56775 22.8247 5.79105L22.9787 6.24493C23.2847 7.1458 23.6599 8.25024 24.0662 9.54238C24.7161 6.97495 25.4223 4.97227 25.9786 3.39468L26.0313 3.24507C26.6099 1.60324 28.1662 0.5 29.904 0.5H42.1125C43.8503 0.5 45.4067 1.60324 45.9852 3.24529L46.0382 3.39556C47.4213 7.31807 49.736 13.8832 49.736 24.688C49.736 36.4738 46.3365 46.4819 44.8848 50.7556L44.7311 51.209C44.3172 52.4323 43.1714 53.2541 41.8799 53.2541H39.2918C38.8384 53.2541 38.471 52.8867 38.471 52.4332C38.471 51.9798 38.8384 51.6124 39.2918 51.6124H41.8799C42.467 51.6124 42.9878 51.2388 43.1759 50.6829L43.3304 50.2278C43.3587 50.1441 43.3877 50.0587 43.4176 49.9707H39.5394C39.2908 49.9707 39.0555 49.858 38.8997 49.6642C38.8916 49.6544 37.7795 48.3289 36.0083 48.3289C34.2399 48.3289 33.1277 49.6507 33.1169 49.6641C32.961 49.8579 32.7258 49.9707 32.4772 49.9707H28.5989C28.6282 50.057 28.6569 50.1417 28.6851 50.2246L28.8405 50.6829C29.0287 51.2388 29.5494 51.6124 30.1365 51.6124H36.0082C36.4616 51.6124 36.829 51.9798 36.829 52.4332C36.829 52.8867 36.4616 53.2541 36.0082 53.2541H30.1365C28.845 53.2541 27.6992 52.4323 27.2854 51.209L27.1306 50.7526C26.8399 49.8966 26.461 48.7812 26.0471 47.4641C25.399 50.0107 24.6896 52.0229 24.1318 53.605L24.079 53.7548C23.5003 55.3968 21.9439 56.5 20.2062 56.5V56.5ZM4.66365 13.5971C3.33156 18.5203 2.0161 25.0837 2.0161 32.312C2.0161 42.8368 4.27259 49.2361 5.62088 53.0595L5.67353 53.209C6.02113 54.1955 6.95527 54.8582 7.99788 54.8582H20.2063C21.2489 54.8582 22.1831 54.1954 22.5307 53.209L22.5836 53.059C23.9317 49.2355 26.188 42.8363 26.188 32.3119C26.188 28.0468 25.7285 23.5765 24.822 19.0252C24.7334 18.5805 25.0221 18.1483 25.4668 18.0599C25.9114 17.9709 26.3436 18.2599 26.4321 18.7046C27.3596 23.3614 27.8299 27.9395 27.8299 32.312C27.8299 36.6613 27.4547 40.324 26.9163 43.4037H45.4465C46.7786 38.4805 48.0943 31.9163 48.0943 24.688C48.0943 14.1643 45.838 7.76495 44.4898 3.94138L44.4369 3.79089C44.0893 2.80454 43.1551 2.14172 42.1125 2.14172H29.904C28.8614 2.14172 27.9272 2.80454 27.5797 3.79078L27.5269 3.94072C26.7922 6.02428 25.79 8.86687 25.0221 12.7785C25.2436 13.5821 25.4659 14.4321 25.6838 15.3265C25.7911 15.7669 25.5211 16.2111 25.0805 16.3184C24.6392 16.4259 24.1959 16.1555 24.0886 15.7151C23.9124 14.9915 23.733 14.2971 23.5534 13.633L4.66365 13.5971ZM39.8948 48.3288H43.9668C44.2792 47.3767 44.6273 46.2756 44.9854 45.0454H27.0289C27.3869 46.2742 27.734 47.3697 28.0491 48.3288H32.1218C32.6814 47.7788 34.0402 46.6871 36.0083 46.6871C37.9763 46.6871 39.3351 47.7788 39.8948 48.3288V48.3288ZM5.12442 11.9563L23.0923 11.9905C22.7317 10.7517 22.38 9.64165 22.0612 8.67129H17.9885C17.4289 9.22126 16.0701 10.313 14.102 10.313C12.1339 10.313 10.7752 9.22126 10.2155 8.67129H6.1435C5.83102 9.62392 5.48276 10.725 5.12442 11.9563V11.9563ZM14.102 39.4379C14.0068 39.4379 13.9117 39.4214 13.8208 39.3882L10.2594 38.0897C7.17669 36.9658 5.10549 34.006 5.10549 30.7249V26.934C5.10549 26.6662 5.23617 26.4151 5.45572 26.2615C5.67517 26.1079 5.95568 26.071 6.20752 26.1628L9.76897 27.4613C11.6936 28.163 13.2238 29.58 14.102 31.3444C14.9801 29.5801 16.5104 28.1631 18.4351 27.4613L21.9965 26.1628C22.2486 26.071 22.529 26.1079 22.7483 26.2615C22.9679 26.415 23.0985 26.6661 23.0985 26.934V30.7249C23.0985 34.006 21.0273 36.9658 17.9446 38.0897L14.3832 39.3882C14.2923 39.4213 14.1972 39.4379 14.102 39.4379V39.4379ZM6.74721 28.107V30.7248C6.74721 33.3188 8.38467 35.6587 10.8219 36.5473L13.2813 37.4439V34.8262C13.2813 32.2322 11.6438 29.8923 9.20662 29.0037L6.74721 28.107ZM14.9229 34.8262V37.444L17.3823 36.5474C19.8195 35.6588 21.4569 33.3189 21.4569 30.7249V28.1071L18.9975 29.0037C16.5603 29.8923 14.9229 32.2322 14.9229 34.8262ZM36.0083 30.8171C32.8746 30.8171 30.3252 28.2678 30.3252 25.1341C30.3252 22.6144 31.732 19.6239 34.7528 15.7228C35.0555 15.3318 35.513 15.1074 36.0082 15.1074C36.5033 15.1074 36.9609 15.3318 37.2638 15.7229C40.2844 19.624 41.6913 22.6144 41.6913 25.1341C41.6913 28.2678 39.1419 30.8171 36.0083 30.8171V30.8171ZM36.0083 16.783C33.2889 20.3055 31.9669 23.0376 31.9669 25.1341C31.9669 27.3624 33.7798 29.1754 36.0083 29.1754C38.2365 29.1754 40.0495 27.3625 40.0495 25.1341C40.0495 23.0376 38.7275 20.3054 36.0083 16.783Z" fill="#2B2A29"/>
</svg>
