<svg width="48" height="48" viewBox="0 0 48 48" fill="none" xmlns="http://www.w3.org/2000/svg">
<path fill-rule="evenodd" clip-rule="evenodd" d="M48 24.145C48 10.8113 37.2536 0 24 0C10.7464 0 0 10.8113 0 24.145C0 36.1959 8.775 46.1848 20.25 47.9978V31.1265H14.1546V24.145H20.25V18.8255C20.25 12.7753 23.8339 9.43055 29.3154 9.43055C31.9414 9.43055 34.6886 9.90268 34.6886 9.90268V15.8451H31.6607C28.6811 15.8451 27.7489 17.7056 27.7489 19.6178V24.145H34.4046L33.3418 31.1265H27.75V48C39.225 46.1881 48 36.1991 48 24.145V24.145Z" fill="#2B2A29"/>
</svg>
