<svg width="24" height="25" viewBox="0 0 24 25" fill="none" xmlns="http://www.w3.org/2000/svg">
<path d="M16.9998 2.49982C18.3248 2.50378 19.5943 3.03187 20.5312 3.96876C21.4681 4.90566 21.9962 6.17522 22.0002 7.50018V17.4998C21.9962 18.8248 21.4681 20.0943 20.5312 21.0312C19.5943 21.9681 18.3248 22.4962 16.9998 22.5002H7.00018C5.67522 22.4962 4.40566 21.9681 3.46876 21.0312C2.53187 20.0943 2.00378 18.8248 1.99982 17.4998V7.50018C2.00378 6.17522 2.53187 4.90566 3.46876 3.96876C4.40566 3.03187 5.67522 2.50378 7.00018 2.49982H16.9998ZM16.9998 0.5H7.00018C3.15 0.5 0 3.65 0 7.50018V17.4998C0 21.35 3.15 24.5 7.00018 24.5H16.9998C20.85 24.5 24 21.35 24 17.4998V7.50018C24 3.65 20.85 0.5 16.9998 0.5Z" fill="white"/>
<path d="M18.4998 7.50024C18.2032 7.50024 17.9131 7.41227 17.6665 7.24745C17.4198 7.08263 17.2275 6.84836 17.114 6.57427C17.0005 6.30018 16.9708 5.99858 17.0286 5.70761C17.0865 5.41664 17.2294 5.14936 17.4392 4.93958C17.6489 4.72981 17.9162 4.58694 18.2072 4.52907C18.4982 4.47119 18.7998 4.50089 19.0738 4.61443C19.3479 4.72796 19.5822 4.92022 19.747 5.16689C19.9118 5.41356 19.9998 5.70357 19.9998 6.00024C20.0002 6.19735 19.9617 6.39259 19.8865 6.57477C19.8113 6.75695 19.7008 6.92248 19.5614 7.06185C19.4221 7.20122 19.2565 7.31169 19.0743 7.38693C18.8922 7.46216 18.6969 7.50067 18.4998 7.50024ZM12 8.49989C12.7912 8.49989 13.5646 8.73449 14.2224 9.17404C14.8802 9.61358 15.3929 10.2383 15.6957 10.9693C15.9984 11.7002 16.0777 12.5045 15.9233 13.2805C15.769 14.0564 15.388 14.7692 14.8286 15.3286C14.2691 15.8881 13.5564 16.269 12.7804 16.4234C12.0044 16.5777 11.2001 16.4985 10.4692 16.1957C9.73826 15.893 9.11352 15.3803 8.67398 14.7224C8.23443 14.0646 7.99982 13.2912 7.99982 12.5001C8.00096 11.4395 8.42277 10.4227 9.1727 9.67277C9.92264 8.92283 10.9394 8.50102 12 8.49989ZM12 6.50007C10.8133 6.50007 9.65328 6.85196 8.66658 7.51125C7.67989 8.17054 6.91085 9.10761 6.45673 10.204C6.0026 11.3003 5.88378 12.5067 6.11529 13.6706C6.3468 14.8345 6.91825 15.9036 7.75736 16.7427C8.59648 17.5818 9.66557 18.1533 10.8295 18.3848C11.9933 18.6163 13.1997 18.4975 14.2961 18.0433C15.3925 17.5892 16.3295 16.8202 16.9888 15.8335C17.6481 14.8468 18 13.6868 18 12.5001C18 10.9088 17.3679 9.38264 16.2426 8.25743C15.1174 7.13221 13.5913 6.50007 12 6.50007Z" fill="white"/>
</svg>
