<svg width="55" height="23" viewBox="0 0 55 23" fill="none" xmlns="http://www.w3.org/2000/svg">
<path d="M0.968 22.312V0.759999H8.144V2.632H3.128V20.44H8.144V22.312H0.968ZM24.1426 2.248V14.512C24.1426 15.232 24.0146 15.888 23.7586 16.48C23.5186 17.072 23.1666 17.576 22.7026 17.992C22.2546 18.408 21.7106 18.728 21.0706 18.952C20.4306 19.176 19.7186 19.288 18.9346 19.288C17.4626 19.288 16.2866 18.92 15.4066 18.184C14.5426 17.448 13.9826 16.432 13.7266 15.136L16.2706 14.608C16.4146 15.296 16.6866 15.872 17.0866 16.336C17.4866 16.8 18.1106 17.032 18.9586 17.032C19.7426 17.032 20.3506 16.8 20.7826 16.336C21.2306 15.856 21.4546 15.128 21.4546 14.152V4.504H15.6226V2.248H24.1426ZM36.3013 19.288C34.1733 19.288 32.5893 18.536 31.5493 17.032C30.5253 15.528 30.0133 13.392 30.0133 10.624C30.0133 7.856 30.5253 5.72 31.5493 4.216C32.5893 2.712 34.1733 1.96 36.3013 1.96C37.1173 1.96 37.8213 2.072 38.4133 2.296C39.0213 2.504 39.5413 2.8 39.9733 3.184C40.4053 3.552 40.7653 3.992 41.0533 4.504C41.3573 5 41.6053 5.536 41.7973 6.112L39.3733 6.928C39.2453 6.544 39.1013 6.184 38.9413 5.848C38.7813 5.512 38.5813 5.224 38.3413 4.984C38.1013 4.744 37.8133 4.552 37.4773 4.408C37.1573 4.264 36.7573 4.192 36.2773 4.192C35.0933 4.192 34.2293 4.648 33.6853 5.56C33.1413 6.456 32.8693 7.672 32.8693 9.208V12.04C32.8693 13.576 33.1413 14.8 33.6853 15.712C34.2293 16.608 35.0933 17.056 36.2773 17.056C36.7573 17.056 37.1573 16.984 37.4773 16.84C37.8133 16.696 38.1013 16.504 38.3413 16.264C38.5813 16.024 38.7813 15.736 38.9413 15.4C39.1013 15.064 39.2453 14.704 39.3733 14.32L41.7973 15.136C41.6053 15.712 41.3573 16.256 41.0533 16.768C40.7653 17.264 40.4053 17.704 39.9733 18.088C39.5413 18.456 39.0213 18.752 38.4133 18.976C37.8213 19.184 37.1173 19.288 36.3013 19.288ZM54.3639 0.759999V22.312H47.1879V20.44H52.2039V2.632H47.1879V0.759999H54.3639Z" fill="#212529"/>
</svg>
